<?xml version="1.0" encoding="utf-8"?>
<!-- Generator: Adobe Illustrator 16.0.0, SVG Export Plug-In . SVG Version: 6.00 Build 0)  -->
<svg version="1.2" baseProfile="tiny" id="LOGO" xmlns="http://www.w3.org/2000/svg" xmlns:xlink="http://www.w3.org/1999/xlink"
	 x="0px" y="0px" width="200px" height="40px" viewBox="0 0 200 40" xml:space="preserve">
<g>
	<g>
		<g>
			<polygon fill="#0083CA" points="29.975,20.143 13.467,1.412 1.727,13.658 1.727,27.261 10.146,30.724 10.146,19.938 
				17.123,22.236 17.123,33.591 29.975,38.875 			"/>
			<polygon fill="#0083CA" points="13.828,32.045 10.146,30.718 10.146,19.938 13.828,23.024 			"/>
		</g>
		<g>
			<polygon fill="#00A8DE" points="32.643,20.143 49.146,1.412 60.892,13.658 60.892,27.261 52.478,30.724 52.478,19.938 
				45.495,22.236 45.495,33.591 32.643,38.875 			"/>
			<polygon fill="#00A8DE" points="48.787,32.045 52.478,30.718 52.478,19.938 48.787,23.024 			"/>
		</g>
		<polygon fill="#00A8DE" points="15.951,1.125 29.975,17.039 32.643,17.039 46.356,1.125 		"/>
	</g>
	<rect x="64.922" y="4.147" fill="none" width="130.494" height="34.264"/>
	<text transform="matrix(0.7418 0 0 1 64.9219 25.8452)" fill="#00B9F2" font-family="'Impact'" font-size="27.4321">T</text>
	<text transform="matrix(0.7418 0 0 1 74.3018 25.8452)" fill="#00B9F2" font-family="'Impact'" font-size="27.4321">R</text>
	<text transform="matrix(0.7418 0 0 1 85.2617 25.8452)" fill="#00B9F2" font-family="'Impact'" font-size="27.4321">A</text>
	<text transform="matrix(0.7418 0 0 1 95.2285 25.8452)" fill="#A6CE39" font-family="'Impact'" font-size="27.4321">W</text>
	<text transform="matrix(0.7418 0 0 1 111.6035 25.8452)" fill="#A6CE39" font-family="'Impact'" font-size="27.4321">A</text>
	<text transform="matrix(0.7418 0 0 1 121.9375 25.8452)" fill="#A6CE39" font-family="'Impact'" font-size="27.4321">R</text>
	<text transform="matrix(0.7418 0 0 1 132.8975 25.8452)" fill="#A6CE39" font-family="'Impact'" font-size="27.4321">E</text>
	<text transform="matrix(0.7418 0 0 1 141.3535 25.8452)" fill="#A6CE39" font-family="'Impact'" font-size="27.4321">H</text>
	<text transform="matrix(0.7418 0 0 1 152.6514 25.8452)" fill="#A6CE39" font-family="'Impact'" font-size="27.4321">O</text>
	<text transform="matrix(0.7418 0 0 1 163.7705 25.8452)" fill="#A6CE39" font-family="'Impact'" font-size="27.4321">U</text>
	<text transform="matrix(0.7418 0 0 1 174.8994 25.8452)" fill="#A6CE39" font-family="'Impact'" font-size="27.4321">S</text>
	<text transform="matrix(0.7418 0 0 1 185.4219 25.8452)" fill="#A6CE39" font-family="'Impact'" font-size="27.4321">E</text>
	<text transform="matrix(0.9082 0 0 1 64.9219 38.4106)" fill="#FFFFFF" font-family="'Aachen-Bold'" font-size="11.5403">LOGISTIC IN YOUR HAND</text>
</g>
</svg>
